<?xml version="1.0" encoding="UTF-8" ?>
<!DOCTYPE svg PUBLIC "-//W3C//DTD SVG 1.1//EN" "http://www.w3.org/Graphics/SVG/1.1/DTD/svg11.dtd">
<svg width="600pt" height="400pt" viewBox="0 0 600 400" version="1.1" xmlns="http://www.w3.org/2000/svg">
<g id="#efeef4ff">
</g>
<g id="#8d3a6fff">
<path fill="#8d3a6f" opacity="1.00" d=" M 248.54 53.87 C 252.41 55.27 255.65 57.89 259.04 60.15 C 273.04 69.99 284.35 83.26 293.17 97.85 C 292.18 98.37 291.24 98.98 290.21 99.43 C 286.64 98.66 283.35 96.59 279.63 96.58 C 278.17 97.29 276.88 98.31 275.56 99.22 C 266.41 90.86 257.40 82.11 246.43 76.13 C 246.35 68.66 246.60 61.13 248.54 53.87 Z" />
</g>
<g id="#a64686ff">
<path fill="#a64686" opacity="1.00" d=" M 216.95 64.02 C 227.24 66.70 237.38 70.46 246.43 76.13 C 257.40 82.11 266.41 90.86 275.56 99.22 C 282.23 105.49 287.76 112.82 293.71 119.74 C 296.57 122.97 299.07 126.49 301.80 129.82 C 306.91 136.12 311.81 142.59 316.31 149.33 C 324.41 160.86 332.02 172.92 342.18 182.81 C 345.07 185.66 348.71 188.26 352.96 188.20 C 356.18 188.31 358.80 186.21 361.37 184.56 C 362.99 183.46 364.62 182.38 366.19 181.19 C 361.58 191.24 354.32 199.78 346.69 207.67 C 340.96 213.46 334.32 218.22 327.37 222.43 C 315.92 229.92 304.31 237.17 292.94 244.80 C 307.13 244.82 321.32 244.52 335.50 244.92 C 281.82 278.12 227.81 310.82 174.04 343.89 C 172.68 344.74 171.24 345.44 169.83 346.20 C 198.47 317.96 227.66 290.24 256.40 262.09 C 241.92 261.77 227.44 262.31 212.96 261.74 C 225.87 248.36 240.68 236.92 253.03 222.98 C 260.44 214.40 267.28 204.69 269.61 193.39 C 271.45 184.81 269.31 175.74 264.73 168.37 C 252.82 150.84 241.80 132.65 232.44 113.62 C 224.98 97.99 217.19 81.70 216.95 64.02 Z" />
</g>
<g id="#722d59ff">
<path fill="#722d59" opacity="1.00" d=" M 279.63 96.58 C 283.35 96.59 286.64 98.66 290.21 99.43 C 291.24 98.98 292.18 98.37 293.17 97.85 C 297.30 104.72 301.05 111.82 304.50 119.06 C 303.94 119.72 303.38 120.39 302.84 121.05 C 302.45 118.69 301.81 115.86 298.77 116.32 C 298.57 115.98 298.18 115.28 297.99 114.94 C 296.47 116.45 295.00 118.02 293.71 119.74 C 287.76 112.82 282.23 105.49 275.56 99.22 C 276.88 98.31 278.17 97.29 279.63 96.58 Z" />
</g>
<g id="#5a2747ff">
<path fill="#5a2747" opacity="1.00" d=" M 293.71 119.74 C 295.00 118.02 296.47 116.45 297.99 114.94 C 298.18 115.28 298.57 115.98 298.77 116.32 C 301.81 115.86 302.45 118.69 302.84 121.05 C 303.38 120.39 303.94 119.72 304.50 119.06 C 305.66 121.55 306.81 124.04 307.94 126.54 C 307.19 127.20 306.44 127.86 305.69 128.53 C 304.99 127.71 304.50 126.64 303.50 126.17 C 302.87 127.35 302.34 128.59 301.80 129.82 C 299.07 126.49 296.57 122.97 293.71 119.74 Z" />
</g>
<g id="#9f4682ff">
<path fill="#9f4682" opacity="1.00" d=" M 408.13 124.75 C 425.63 120.77 443.48 118.38 461.40 117.38 C 460.25 117.70 459.12 118.08 457.98 118.36 C 442.10 121.15 426.36 124.87 411.10 130.08 C 403.47 132.84 395.58 135.60 389.39 141.05 C 388.52 140.73 387.65 140.41 386.80 140.10 C 384.94 142.46 383.95 145.50 381.51 147.38 C 381.43 145.69 381.41 144.00 381.41 142.32 C 379.99 142.52 378.58 142.74 377.17 142.96 C 378.02 141.68 378.88 140.40 379.74 139.13 C 376.30 138.40 372.79 137.55 369.95 135.35 C 371.51 134.74 373.08 134.16 374.66 133.58 C 373.56 132.91 372.46 132.24 371.38 131.58 C 376.39 130.82 382.01 132.94 386.40 129.58 C 393.56 127.77 400.93 126.54 408.13 124.75 Z" />
</g>
<g id="#481838ff">
<path fill="#481838" opacity="1.00" d=" M 303.50 126.17 C 304.50 126.64 304.99 127.71 305.69 128.53 C 306.44 127.86 307.19 127.20 307.94 126.54 C 311.03 133.83 314.48 140.98 317.17 148.42 C 316.96 148.65 316.53 149.10 316.31 149.33 C 311.81 142.59 306.91 136.12 301.80 129.82 C 302.34 128.59 302.87 127.35 303.50 126.17 Z" />
</g>
<g id="#903d74ff">
<path fill="#903d74" opacity="1.00" d=" M 344.10 131.42 C 348.16 129.46 352.41 127.74 356.94 127.23 C 366.91 125.75 376.39 130.90 386.40 129.58 C 382.01 132.94 376.39 130.82 371.38 131.58 C 372.46 132.24 373.56 132.91 374.66 133.58 C 373.08 134.16 371.51 134.74 369.95 135.35 C 372.79 137.55 376.30 138.40 379.74 139.13 C 378.88 140.40 378.02 141.68 377.17 142.96 C 378.58 142.74 379.99 142.52 381.41 142.32 C 381.41 144.00 381.43 145.69 381.51 147.38 C 383.95 145.50 384.94 142.46 386.80 140.10 C 387.65 140.41 388.52 140.73 389.39 141.05 C 383.79 147.29 379.66 154.65 375.80 162.04 C 375.09 162.05 373.67 162.05 372.96 162.05 C 371.30 159.89 369.28 158.06 367.34 156.16 C 365.88 156.80 364.43 157.47 363.03 158.21 C 363.64 156.61 364.05 154.93 364.75 153.36 C 359.62 148.78 355.00 143.69 349.95 139.03 C 347.57 136.86 345.34 134.44 344.10 131.42 Z" />
</g>
<g id="#7b3361ff">
<path fill="#7b3361" opacity="1.00" d=" M 327.89 145.82 C 332.45 140.17 337.67 134.91 344.10 131.42 C 345.34 134.44 347.57 136.86 349.95 139.03 C 355.00 143.69 359.62 148.78 364.75 153.36 C 364.05 154.93 363.64 156.61 363.03 158.21 C 364.43 157.47 365.88 156.80 367.34 156.16 C 369.28 158.06 371.30 159.89 372.96 162.05 C 373.67 162.05 375.09 162.05 375.80 162.04 C 372.53 168.39 369.97 175.12 366.19 181.19 C 364.62 182.38 362.99 183.46 361.37 184.56 C 361.82 183.37 362.27 182.18 362.70 180.98 C 358.48 178.61 357.19 173.58 353.79 170.40 C 351.35 170.96 349.41 172.76 347.34 174.07 C 348.19 172.47 349.03 170.86 349.90 169.25 C 347.26 165.82 343.85 163.06 341.46 159.43 C 339.03 155.28 333.62 153.55 332.61 148.47 C 331.90 148.97 331.20 149.47 330.50 149.97 C 330.59 149.25 330.68 148.53 330.78 147.81 C 329.80 147.16 328.84 146.49 327.89 145.82 Z" />
</g>
<g id="#61264bff">
<path fill="#61264b" opacity="1.00" d=" M 318.47 150.81 C 321.92 149.79 325.25 148.31 327.89 145.82 C 328.84 146.49 329.80 147.16 330.78 147.81 C 330.68 148.53 330.59 149.25 330.50 149.97 C 331.20 149.47 331.90 148.97 332.61 148.47 C 333.62 153.55 339.03 155.28 341.46 159.43 C 343.85 163.06 347.26 165.82 349.90 169.25 C 349.03 170.86 348.19 172.47 347.34 174.07 C 349.41 172.76 351.35 170.96 353.79 170.40 C 357.19 173.58 358.48 178.61 362.70 180.98 C 362.27 182.18 361.82 183.37 361.37 184.56 C 358.80 186.21 356.18 188.31 352.96 188.20 C 348.71 188.26 345.07 185.66 342.18 182.81 C 332.02 172.92 324.41 160.86 316.31 149.33 C 316.53 149.10 316.96 148.65 317.17 148.42 L 317.41 148.17 C 317.67 148.83 318.21 150.15 318.47 150.81 Z" />
</g>
<g id="#dedde3ff">
<path fill="#dedde3" opacity="1.00" d=" M 16.29 362.29 C 16.68 362.19 17.47 361.99 17.87 361.89 C 22.27 366.99 27.38 372.80 26.87 380.01 C 22.70 380.26 20.62 375.58 21.19 371.99 C 22.29 373.81 23.35 375.73 25.01 377.11 C 24.28 372.43 21.50 368.31 17.84 365.41 C 16.72 367.98 18.06 370.74 18.57 373.31 C 19.37 376.83 21.12 380.15 24.23 382.15 C 23.95 383.47 23.86 385.38 22.03 385.36 C 18.40 384.67 17.32 380.61 16.34 377.59 C 15.09 372.67 13.68 367.01 16.29 362.29 Z" />
</g>
</svg>
